<mxfile host="Electron" modified="2024-06-10T15:12:38.241Z" agent="Mozilla/5.0 (Windows NT 10.0; Win64; x64) AppleWebKit/537.36 (KHTML, like Gecko) draw.io/24.1.0 Chrome/120.0.6099.109 Electron/28.1.0 Safari/537.36" etag="geTeoSsvh5QNzKMD-j05" version="24.1.0" type="device">
  <diagram name="Страница — 1" id="XDdJCOj5BgrIff6nonp3">
    <mxGraphModel dx="1512" dy="945" grid="1" gridSize="10" guides="1" tooltips="1" connect="1" arrows="1" fold="1" page="1" pageScale="1" pageWidth="650" pageHeight="200" math="0" shadow="0">
      <root>
        <mxCell id="0" />
        <mxCell id="1" parent="0" />
        <mxCell id="ga1eZ9HjU4N5ib0OzfGF-16" value="&lt;h1 style=&quot;margin-top: 0px;&quot;&gt;Регистрация&lt;/h1&gt;" style="text;html=1;whiteSpace=wrap;overflow=hidden;rounded=0;" parent="1" vertex="1">
          <mxGeometry x="-610" y="-149" width="180" height="120" as="geometry" />
        </mxCell>
        <mxCell id="dC0uHsRcsvpBTz0B__mM-1" value="AUTH&lt;div&gt;логин&lt;/div&gt;&lt;div&gt;пароль&lt;/div&gt;&lt;div&gt;кнопка auth&lt;br&gt;&lt;/div&gt;" style="rounded=0;whiteSpace=wrap;html=1;" parent="1" vertex="1">
          <mxGeometry x="-370" y="-139" width="180" height="180" as="geometry" />
        </mxCell>
        <mxCell id="dC0uHsRcsvpBTz0B__mM-2" value="get store/&lt;span style=&quot;color: rgba(0, 0, 0, 0); font-family: monospace; font-size: 0px; text-align: start; text-wrap: nowrap;&quot;&gt;%3CmxGraphModel%3E%3Croot%3E%3CmxCell%20id%3D%220%22%2F%3E%3CmxCell%20id%3D%221%22%20parent%3D%220%22%2F%3E%3CmxCell%20id%3D%222%22%20value%3D%22AUTH%26lt%3Bdiv%26gt%3B%D0%BF%D0%BE%D1%87%D1%82%D0%B0%26lt%3B%2Fdiv%26gt%3B%26lt%3Bdiv%26gt%3B%D0%BF%D0%B0%D1%80%D0%BE%D0%BB%D1%8C%26lt%3B%2Fdiv%26gt%3B%26lt%3Bdiv%26gt%3B%D0%BA%D0%BD%D0%BE%D0%BF%D0%BA%D0%B0%20auth%26lt%3Bbr%26gt%3B%26lt%3B%2Fdiv%26gt%3B%22%20style%3D%22rounded%3D0%3BwhiteSpace%3Dwrap%3Bhtml%3D1%3B%22%20vertex%3D%221%22%20parent%3D%221%22%3E%3CmxGeometry%20x%3D%22-380%22%20y%3D%22491%22%20width%3D%22180%22%20height%3D%22180%22%20as%3D%22geometry%22%2F%3E%3C%2FmxCell%3E%3CmxCell%20id%3D%223%22%20value%3D%22client%2Fauth%22%20style%3D%22rounded%3D0%3BwhiteSpace%3Dwrap%3Bhtml%3D1%3BfillColor%3D%23fff2cc%3BstrokeColor%3D%23d6b656%3B%22%20vertex%3D%221%22%20parent%3D%221%22%3E%3CmxGeometry%20x%3D%22-380%22%20y%3D%22450%22%20width%3D%22180%22%20height%3D%2241%22%20as%3D%22geometry%22%2F%3E%3C%2FmxCell%3E%3C%2Froot%3E%3C%2FmxGraphModel%3E&lt;/span&gt;auth" style="rounded=0;whiteSpace=wrap;html=1;fillColor=#fff2cc;strokeColor=#d6b656;" parent="1" vertex="1">
          <mxGeometry x="-370" y="-180" width="180" height="41" as="geometry" />
        </mxCell>
        <mxCell id="dC0uHsRcsvpBTz0B__mM-3" value="AUTH&lt;div&gt;почта&lt;/div&gt;&lt;div&gt;пароль&lt;/div&gt;&lt;div&gt;кнопка auth&lt;br&gt;&lt;/div&gt;" style="rounded=0;whiteSpace=wrap;html=1;" parent="1" vertex="1">
          <mxGeometry x="-380" y="374" width="180" height="180" as="geometry" />
        </mxCell>
        <mxCell id="dC0uHsRcsvpBTz0B__mM-4" value="client/auth" style="rounded=0;whiteSpace=wrap;html=1;fillColor=#fff2cc;strokeColor=#d6b656;" parent="1" vertex="1">
          <mxGeometry x="-380" y="333" width="180" height="41" as="geometry" />
        </mxCell>
        <mxCell id="dC0uHsRcsvpBTz0B__mM-5" value="AUTH&lt;div&gt;почта&lt;/div&gt;&lt;div&gt;пароль&lt;/div&gt;&lt;div&gt;кнопка auth&lt;br&gt;&lt;/div&gt;" style="rounded=0;whiteSpace=wrap;html=1;" parent="1" vertex="1">
          <mxGeometry x="-380" y="103" width="180" height="180" as="geometry" />
        </mxCell>
        <mxCell id="dC0uHsRcsvpBTz0B__mM-6" value="admin/auth" style="rounded=0;whiteSpace=wrap;html=1;fillColor=#fff2cc;strokeColor=#d6b656;" parent="1" vertex="1">
          <mxGeometry x="-380" y="62" width="180" height="41" as="geometry" />
        </mxCell>
        <mxCell id="dC0uHsRcsvpBTz0B__mM-8" value="post store/login&lt;span style=&quot;color: rgba(0, 0, 0, 0); font-family: monospace; font-size: 0px; text-align: start; text-wrap: nowrap;&quot;&gt;%3CmxGraphModel%3E%3Croot%3E%3CmxCell%20id%3D%220%22%2F%3E%3CmxCell%20id%3D%221%22%20parent%3D%220%22%2F%3E%3CmxCell%20id%3D%222%22%20value%3D%22AUTH%26lt%3Bdiv%26gt%3B%D0%BF%D0%BE%D1%87%D1%82%D0%B0%26lt%3B%2Fdiv%26gt%3B%26lt%3Bdiv%26gt%3B%D0%BF%D0%B0%D1%80%D0%BE%D0%BB%D1%8C%26lt%3B%2Fdiv%26gt%3B%26lt%3Bdiv%26gt%3B%D0%BA%D0%BD%D0%BE%D0%BF%D0%BA%D0%B0%20auth%26lt%3Bbr%26gt%3B%26lt%3B%2Fdiv%26gt%3B%22%20style%3D%22rounded%3D0%3BwhiteSpace%3Dwrap%3Bhtml%3D1%3B%22%20vertex%3D%221%22%20parent%3D%221%22%3E%3CmxGeometry%20x%3D%22-380%22%20y%3D%22491%22%20width%3D%22180%22%20height%3D%22180%22%20as%3D%22geometry%22%2F%3E%3C%2FmxCell%3E%3CmxCell%20id%3D%223%22%20value%3D%22client%2Fauth%22%20style%3D%22rounded%3D0%3BwhiteSpace%3Dwrap%3Bhtml%3D1%3BfillColor%3D%23fff2cc%3BstrokeColor%3D%23d6b656%3B%22%20vertex%3D%221%22%20parent%3D%221%22%3E%3CmxGeometry%20x%3D%22-380%22%20y%3D%22450%22%20width%3D%22180%22%20height%3D%2241%22%20as%3D%22geometry%22%2F%3E%3C%2FmxCell%3E%3C%2Froot%3E%3C%2FmxGraphModel%lol&lt;/span&gt;&amp;nbsp;+ payload" style="rounded=0;whiteSpace=wrap;html=1;fillColor=#fff2cc;strokeColor=#d6b656;" parent="1" vertex="1">
          <mxGeometry x="-121" y="-69.5" width="180" height="41" as="geometry" />
        </mxCell>
        <mxCell id="dC0uHsRcsvpBTz0B__mM-9" value="post admin/login&lt;span style=&quot;color: rgba(0, 0, 0, 0); font-family: monospace; font-size: 0px; text-align: start; text-wrap: nowrap;&quot;&gt;%3CmxGraphModel%3E%3Croot%3E%3CmxCell%20id%3D%220%22%2F%3E%3CmxCell%20id%3D%221%22%20parent%3D%220%22%2F%3E%3CmxCell%20id%3D%222%22%20value%3D%22AUTH%26lt%3Bdiv%26gt%3B%D0%BF%D0%BE%D1%87%D1%82%D0%B0%26lt%3B%2Fdiv%26gt%3B%26lt%3Bdiv%26gt%3B%D0%BF%D0%B0%D1%80%D0%BE%D0%BB%D1%8C%26lt%3B%2Fdiv%26gt%3B%26lt%3Bdiv%26gt%3B%D0%BA%D0%BD%D0%BE%D0%BF%D0%BA%D0%B0%20auth%26lt%3Bbr%26gt%3B%26lt%3B%2Fdiv%26gt%3B%22%20style%3D%22rounded%3D0%3BwhiteSpace%3Dwrap%3Bhtml%3D1%3B%22%20vertex%3D%221%22%20parent%3D%221%22%3E%3CmxGeometry%20x%3D%22-380%22%20y%3D%22491%22%20width%3D%22180%22%20height%3D%22180%22%20as%3D%22geometry%22%2F%3E%3C%2FmxCell%3E%3CmxCell%20id%3D%223%22%20value%3D%22client%2Fauth%22%20style%3D%22rounded%3D0%3BwhiteSpace%3Dwrap%3Bhtml%3D1%3BfillColor%3D%23fff2cc%3BstrokeColor%3D%23d6b656%3B%22%20vertex%3D%221%22%20parent%3D%221%22%3E%3CmxGeometry%20x%3D%22-380%22%20y%3D%22450%22%20width%3D%22180%22%20height%3D%2241%22%20as%3D%22geometry%22%2F%3E%3C%2FmxCell%3E%3C%2Froot%3E%3C%2FmxGraphModel%lol&lt;/span&gt;&amp;nbsp;+ payload" style="rounded=0;whiteSpace=wrap;html=1;fillColor=#fff2cc;strokeColor=#d6b656;" parent="1" vertex="1">
          <mxGeometry x="-111" y="203" width="180" height="41" as="geometry" />
        </mxCell>
        <mxCell id="dC0uHsRcsvpBTz0B__mM-10" value="post client/login&lt;span style=&quot;color: rgba(0, 0, 0, 0); font-family: monospace; font-size: 0px; text-align: start; text-wrap: nowrap;&quot;&gt;%3CmxGraphModel%3E%3Croot%3E%3CmxCell%20id%3D%220%22%2F%3E%3CmxCell%20id%3D%221%22%20parent%3D%220%22%2F%3E%3CmxCell%20id%3D%222%22%20value%3D%22AUTH%26lt%3Bdiv%26gt%3B%D0%BF%D0%BE%D1%87%D1%82%D0%B0%26lt%3B%2Fdiv%26gt%3B%26lt%3Bdiv%26gt%3B%D0%BF%D0%B0%D1%80%D0%BE%D0%BB%D1%8C%26lt%3B%2Fdiv%26gt%3B%26lt%3Bdiv%26gt%3B%D0%BA%D0%BD%D0%BE%D0%BF%D0%BA%D0%B0%20auth%26lt%3Bbr%26gt%3B%26lt%3B%2Fdiv%26gt%3B%22%20style%3D%22rounded%3D0%3BwhiteSpace%3Dwrap%3Bhtml%3D1%3B%22%20vertex%3D%221%22%20parent%3D%221%22%3E%3CmxGeometry%20x%3D%22-380%22%20y%3D%22491%22%20width%3D%22180%22%20height%3D%22180%22%20as%3D%22geometry%22%2F%3E%3C%2FmxCell%3E%3CmxCell%20id%3D%223%22%20value%3D%22client%2Fauth%22%20style%3D%22rounded%3D0%3BwhiteSpace%3Dwrap%3Bhtml%3D1%3BfillColor%3D%23fff2cc%3BstrokeColor%3D%23d6b656%3B%22%20vertex%3D%221%22%20parent%3D%221%22%3E%3CmxGeometry%20x%3D%22-380%22%20y%3D%22450%22%20width%3D%22180%22%20height%3D%2241%22%20as%3D%22geometry%22%2F%3E%3C%2FmxCell%3E%3C%2Froot%3E%3C%2FmxGraphModel%lol&lt;/span&gt;&amp;nbsp;+ payload" style="rounded=0;whiteSpace=wrap;html=1;fillColor=#fff2cc;strokeColor=#d6b656;" parent="1" vertex="1">
          <mxGeometry x="-121" y="423" width="180" height="41" as="geometry" />
        </mxCell>
        <mxCell id="dC0uHsRcsvpBTz0B__mM-11" value="post client/registration&lt;span style=&quot;color: rgba(0, 0, 0, 0); font-family: monospace; font-size: 0px; text-align: start; text-wrap: nowrap;&quot;&gt;%3CmxGraphModel%3E%3Croot%3E%3CmxCell%20id%3D%220%22%2F%3E%3CmxCell%20id%3D%221%22%20parent%3D%220%22%2F%3E%3CmxCell%20id%3D%222%22%20value%3D%22AUTH%26lt%3Bdiv%26gt%3B%D0%BF%D0%BE%D1%87%D1%82%D0%B0%26lt%3B%2Fdiv%26gt%3B%26lt%3Bdiv%26gt%3B%D0%BF%D0%B0%D1%80%D0%BE%D0%BB%D1%8C%26lt%3B%2Fdiv%26gt%3B%26lt%3Bdiv%26gt%3B%D0%BA%D0%BD%D0%BE%D0%BF%D0%BA%D0%B0%20auth%26lt%3Bbr%26gt%3B%26lt%3B%2Fdiv%26gt%3B%22%20style%3D%22rounded%3D0%3BwhiteSpace%3Dwrap%3Bhtml%3D1%3B%22%20vertex%3D%221%22%20parent%3D%221%22%3E%3CmxGeometry%20x%3D%22-380%22%20y%3D%22491%22%20width%3D%22180%22%20height%3D%22180%22%20as%3D%22geometry%22%2F%3E%3C%2FmxCell%3E%3CmxCell%20id%3D%223%22%20value%3D%22client%2Fauth%22%20style%3D%22rounded%3D0%3BwhiteSpace%3Dwrap%3Bhtml%3D1%3BfillColor%3D%23fff2cc%3BstrokeColor%3D%23d6b656%3B%22%20vertex%3D%221%22%20parent%3D%221%22%3E%3CmxGeometry%20x%3D%22-380%22%20y%3D%22450%22%20width%3D%22180%22%20height%3D%2241%22%20as%3D%22geometry%22%2F%3E%3C%2FmxCell%3E%3C%2Froot%3E%3C%2FmxGraphModel%lol&lt;/span&gt;&amp;nbsp;+ payload" style="rounded=0;whiteSpace=wrap;html=1;fillColor=#fff2cc;strokeColor=#d6b656;" parent="1" vertex="1">
          <mxGeometry x="-121" y="464" width="180" height="41" as="geometry" />
        </mxCell>
        <mxCell id="bWzLP5L4RH6KkXzM0k1r-3" value="AUTH&lt;div&gt;почта&lt;/div&gt;&lt;div&gt;пароль&lt;/div&gt;&lt;div&gt;кнопка auth&lt;br&gt;&lt;/div&gt;" style="rounded=0;whiteSpace=wrap;html=1;" vertex="1" parent="1">
          <mxGeometry x="-380" y="651" width="180" height="180" as="geometry" />
        </mxCell>
        <mxCell id="bWzLP5L4RH6KkXzM0k1r-4" value="curier/auth" style="rounded=0;whiteSpace=wrap;html=1;fillColor=#fff2cc;strokeColor=#d6b656;" vertex="1" parent="1">
          <mxGeometry x="-380" y="610" width="180" height="41" as="geometry" />
        </mxCell>
        <mxCell id="bWzLP5L4RH6KkXzM0k1r-5" value="post curier/login&lt;span style=&quot;color: rgba(0, 0, 0, 0); font-family: monospace; font-size: 0px; text-align: start; text-wrap: nowrap;&quot;&gt;%3CmxGraphModel%3E%3Croot%3E%3CmxCell%20id%3D%220%22%2F%3E%3CmxCell%20id%3D%221%22%20parent%3D%220%22%2F%3E%3CmxCell%20id%3D%222%22%20value%3D%22AUTH%26lt%3Bdiv%26gt%3B%D0%BF%D0%BE%D1%87%D1%82%D0%B0%26lt%3B%2Fdiv%26gt%3B%26lt%3Bdiv%26gt%3B%D0%BF%D0%B0%D1%80%D0%BE%D0%BB%D1%8C%26lt%3B%2Fdiv%26gt%3B%26lt%3Bdiv%26gt%3B%D0%BA%D0%BD%D0%BE%D0%BF%D0%BA%D0%B0%20auth%26lt%3Bbr%26gt%3B%26lt%3B%2Fdiv%26gt%3B%22%20style%3D%22rounded%3D0%3BwhiteSpace%3Dwrap%3Bhtml%3D1%3B%22%20vertex%3D%221%22%20parent%3D%221%22%3E%3CmxGeometry%20x%3D%22-380%22%20y%3D%22491%22%20width%3D%22180%22%20height%3D%22180%22%20as%3D%22geometry%22%2F%3E%3C%2FmxCell%3E%3CmxCell%20id%3D%223%22%20value%3D%22client%2Fauth%22%20style%3D%22rounded%3D0%3BwhiteSpace%3Dwrap%3Bhtml%3D1%3BfillColor%3D%23fff2cc%3BstrokeColor%3D%23d6b656%3B%22%20vertex%3D%221%22%20parent%3D%221%22%3E%3CmxGeometry%20x%3D%22-380%22%20y%3D%22450%22%20width%3D%22180%22%20height%3D%2241%22%20as%3D%22geometry%22%2F%3E%3C%2FmxCell%3E%3C%2Froot%3E%3C%2FmxGraphModel%lol&lt;/span&gt;&amp;nbsp;+ payload" style="rounded=0;whiteSpace=wrap;html=1;fillColor=#fff2cc;strokeColor=#d6b656;" vertex="1" parent="1">
          <mxGeometry x="-121" y="700" width="180" height="41" as="geometry" />
        </mxCell>
        <mxCell id="bWzLP5L4RH6KkXzM0k1r-6" value="post curier/registration&lt;span style=&quot;color: rgba(0, 0, 0, 0); font-family: monospace; font-size: 0px; text-align: start; text-wrap: nowrap;&quot;&gt;%3CmxGraphModel%3E%3Croot%3E%3CmxCell%20id%3D%220%22%2F%3E%3CmxCell%20id%3D%221%22%20parent%3D%220%22%2F%3E%3CmxCell%20id%3D%222%22%20value%3D%22AUTH%26lt%3Bdiv%26gt%3B%D0%BF%D0%BE%D1%87%D1%82%D0%B0%26lt%3B%2Fdiv%26gt%3B%26lt%3Bdiv%26gt%3B%D0%BF%D0%B0%D1%80%D0%BE%D0%BB%D1%8C%26lt%3B%2Fdiv%26gt%3B%26lt%3Bdiv%26gt%3B%D0%BA%D0%BD%D0%BE%D0%BF%D0%BA%D0%B0%20auth%26lt%3Bbr%26gt%3B%26lt%3B%2Fdiv%26gt%3B%22%20style%3D%22rounded%3D0%3BwhiteSpace%3Dwrap%3Bhtml%3D1%3B%22%20vertex%3D%221%22%20parent%3D%221%22%3E%3CmxGeometry%20x%3D%22-380%22%20y%3D%22491%22%20width%3D%22180%22%20height%3D%22180%22%20as%3D%22geometry%22%2F%3E%3C%2FmxCell%3E%3CmxCell%20id%3D%223%22%20value%3D%22client%2Fauth%22%20style%3D%22rounded%3D0%3BwhiteSpace%3Dwrap%3Bhtml%3D1%3BfillColor%3D%23fff2cc%3BstrokeColor%3D%23d6b656%3B%22%20vertex%3D%221%22%20parent%3D%221%22%3E%3CmxGeometry%20x%3D%22-380%22%20y%3D%22450%22%20width%3D%22180%22%20height%3D%2241%22%20as%3D%22geometry%22%2F%3E%3C%2FmxCell%3E%3C%2Froot%3E%3C%2FmxGraphModel%lol&lt;/span&gt;&amp;nbsp;+ payload" style="rounded=0;whiteSpace=wrap;html=1;fillColor=#fff2cc;strokeColor=#d6b656;" vertex="1" parent="1">
          <mxGeometry x="-121" y="741" width="180" height="41" as="geometry" />
        </mxCell>
      </root>
    </mxGraphModel>
  </diagram>
</mxfile>
